<svg width="800" height="400" xmlns="http://www.w3.org/2000/svg">
  <rect width="100%" height="100%" fill="#0a0a0f" />
  <rect x="790" y="47" width="72" height="4" fill="#0f0" opacity="0.34048022273841316" />
<rect x="188" y="70" width="68" height="3" fill="#0f0" opacity="0.23780124855257667" />
<rect x="786" y="137" width="16" height="2" fill="#0f0" opacity="0.48086654010818536" />
<rect x="772" y="322" width="92" height="3" fill="#0f0" opacity="0.4779451347849838" />
<rect x="393" y="390" width="14" height="5" fill="#0f0" opacity="0.3097888986884771" />
<rect x="314" y="152" width="41" height="4" fill="#0f0" opacity="0.3960739295727871" />
<rect x="223" y="95" width="98" height="3" fill="#0f0" opacity="0.4555752207649991" />
<rect x="53" y="308" width="83" height="3" fill="#0f0" opacity="0.27429061802087307" />
<rect x="762" y="82" width="52" height="2" fill="#0f0" opacity="0.37835224267433215" />
<rect x="487" y="316" width="64" height="3" fill="#0f0" opacity="0.07057839994330073" />
<rect x="523" y="202" width="70" height="3" fill="#0f0" opacity="0.14986614980300078" />
<rect x="589" y="81" width="84" height="5" fill="#0f0" opacity="0.44749958093431724" />
<rect x="220" y="109" width="19" height="3" fill="#0f0" opacity="0.4259680329796159" />
<rect x="773" y="243" width="27" height="2" fill="#0f0" opacity="0.10573095381934844" />
<rect x="2" y="230" width="36" height="5" fill="#0f0" opacity="0.01628706460479501" />
<rect x="397" y="4" width="43" height="5" fill="#0f0" opacity="0.18592802321905294" />
<rect x="498" y="311" width="10" height="3" fill="#0f0" opacity="0.26607866516728185" />
<rect x="604" y="311" width="14" height="4" fill="#0f0" opacity="0.1827597294455401" />
<rect x="206" y="156" width="88" height="3" fill="#0f0" opacity="0.2009295982129362" />
<rect x="49" y="111" width="77" height="4" fill="#0f0" opacity="0.08988494825070026" />
<rect x="71" y="128" width="68" height="3" fill="#0f0" opacity="0.28721339538428825" />
<rect x="725" y="125" width="69" height="5" fill="#0f0" opacity="0.07736178178753972" />
<rect x="332" y="281" width="62" height="3" fill="#0f0" opacity="0.2418699750666155" />
<rect x="48" y="110" width="94" height="2" fill="#0f0" opacity="0.33496004763647336" />
<rect x="332" y="206" width="67" height="2" fill="#0f0" opacity="0.3657536024002335" />
<rect x="380" y="82" width="21" height="2" fill="#0f0" opacity="0.10334218382958071" />
<rect x="577" y="288" width="93" height="2" fill="#0f0" opacity="0.3794441057558646" />
<rect x="529" y="5" width="53" height="4" fill="#0f0" opacity="0.321099310384937" />
<rect x="390" y="280" width="92" height="2" fill="#0f0" opacity="0.3571160838760017" />
<rect x="634" y="163" width="91" height="4" fill="#0f0" opacity="0.4721911382271062" />

  <line x1="442" y1="246" x2="588" y2="216" stroke="#0f0" stroke-width="1" opacity="0.3" />
<line x1="196" y1="386" x2="620" y2="98" stroke="#0f0" stroke-width="1" opacity="0.3" />
<line x1="166" y1="152" x2="19" y2="207" stroke="#0f0" stroke-width="1" opacity="0.3" />
<line x1="61" y1="378" x2="17" y2="130" stroke="#0f0" stroke-width="1" opacity="0.3" />
<line x1="210" y1="297" x2="646" y2="3" stroke="#0f0" stroke-width="1" opacity="0.3" />
<line x1="693" y1="356" x2="784" y2="228" stroke="#0f0" stroke-width="1" opacity="0.3" />
<line x1="673" y1="15" x2="481" y2="21" stroke="#0f0" stroke-width="1" opacity="0.3" />
<line x1="251" y1="365" x2="236" y2="18" stroke="#0f0" stroke-width="1" opacity="0.3" />
<line x1="47" y1="161" x2="463" y2="266" stroke="#0f0" stroke-width="1" opacity="0.3" />
<line x1="85" y1="114" x2="401" y2="11" stroke="#0f0" stroke-width="1" opacity="0.3" />

  <text x="50%" y="50%" dominant-baseline="middle" text-anchor="middle" font-family="monospace" font-size="40" fill="#fff" font-weight="bold" style="text-shadow: 2px 2px #0f0;">ASYNC MOTOR</text>
</svg>