<svg width="800" height="400" xmlns="http://www.w3.org/2000/svg">
  <rect width="100%" height="100%" fill="#0a0a0f" />
  <rect x="170" y="285" width="53" height="5" fill="#0f0" opacity="0.4126401342091502" />
<rect x="17" y="335" width="27" height="4" fill="#0f0" opacity="0.4629650600123303" />
<rect x="170" y="263" width="25" height="3" fill="#0f0" opacity="0.2158692712810527" />
<rect x="575" y="31" width="81" height="5" fill="#0f0" opacity="0.1708672921616295" />
<rect x="760" y="255" width="66" height="2" fill="#0f0" opacity="0.41566359937499325" />
<rect x="630" y="144" width="91" height="4" fill="#0f0" opacity="0.2445839997652549" />
<rect x="576" y="287" width="33" height="2" fill="#0f0" opacity="0.37780308011992664" />
<rect x="294" y="351" width="49" height="5" fill="#0f0" opacity="0.1191218167215225" />
<rect x="711" y="64" width="33" height="3" fill="#0f0" opacity="0.4705033117449141" />
<rect x="641" y="254" width="55" height="4" fill="#0f0" opacity="0.22244747197672882" />
<rect x="56" y="159" width="95" height="3" fill="#0f0" opacity="0.2507663620477912" />
<rect x="82" y="257" width="50" height="5" fill="#0f0" opacity="0.4244958476014704" />
<rect x="680" y="205" width="23" height="3" fill="#0f0" opacity="0.05124118648181186" />
<rect x="728" y="178" width="50" height="4" fill="#0f0" opacity="0.3897896839824643" />
<rect x="526" y="302" width="72" height="5" fill="#0f0" opacity="0.49610231004790417" />
<rect x="717" y="227" width="82" height="3" fill="#0f0" opacity="0.37656804054516174" />
<rect x="479" y="36" width="45" height="5" fill="#0f0" opacity="0.3695257389208901" />
<rect x="194" y="179" width="45" height="4" fill="#0f0" opacity="0.2503943030491528" />
<rect x="698" y="203" width="99" height="3" fill="#0f0" opacity="0.01033620220432252" />
<rect x="10" y="7" width="61" height="2" fill="#0f0" opacity="0.22320654234359583" />
<rect x="464" y="255" width="16" height="5" fill="#0f0" opacity="0.43489601630033714" />
<rect x="94" y="192" width="59" height="5" fill="#0f0" opacity="0.45722702974404444" />
<rect x="149" y="271" width="18" height="5" fill="#0f0" opacity="0.18412473418571385" />
<rect x="97" y="393" width="35" height="5" fill="#0f0" opacity="0.4328285846818499" />
<rect x="776" y="48" width="99" height="5" fill="#0f0" opacity="0.03549421384539908" />
<rect x="476" y="12" width="43" height="4" fill="#0f0" opacity="0.11678956782233368" />
<rect x="574" y="133" width="23" height="3" fill="#0f0" opacity="0.09226670189724473" />
<rect x="255" y="29" width="17" height="2" fill="#0f0" opacity="0.38947732220141956" />
<rect x="135" y="5" width="62" height="2" fill="#0f0" opacity="0.3794533221178498" />
<rect x="340" y="4" width="41" height="5" fill="#0f0" opacity="0.4171577802578901" />

  <line x1="437" y1="359" x2="188" y2="345" stroke="#0f0" stroke-width="1" opacity="0.3" />
<line x1="259" y1="122" x2="470" y2="198" stroke="#0f0" stroke-width="1" opacity="0.3" />
<line x1="640" y1="96" x2="609" y2="189" stroke="#0f0" stroke-width="1" opacity="0.3" />
<line x1="375" y1="15" x2="159" y2="31" stroke="#0f0" stroke-width="1" opacity="0.3" />
<line x1="385" y1="245" x2="306" y2="30" stroke="#0f0" stroke-width="1" opacity="0.3" />
<line x1="401" y1="109" x2="81" y2="134" stroke="#0f0" stroke-width="1" opacity="0.3" />
<line x1="411" y1="29" x2="470" y2="24" stroke="#0f0" stroke-width="1" opacity="0.3" />
<line x1="138" y1="210" x2="316" y2="48" stroke="#0f0" stroke-width="1" opacity="0.3" />
<line x1="518" y1="46" x2="525" y2="271" stroke="#0f0" stroke-width="1" opacity="0.3" />
<line x1="364" y1="52" x2="502" y2="283" stroke="#0f0" stroke-width="1" opacity="0.3" />

  <text x="50%" y="50%" dominant-baseline="middle" text-anchor="middle" font-family="monospace" font-size="40" fill="#fff" font-weight="bold" style="text-shadow: 2px 2px #0f0;">CORONA ANALYTICS</text>
</svg>