<svg width="800" height="400" xmlns="http://www.w3.org/2000/svg">
  <rect width="100%" height="100%" fill="#0a0a0f" />
  <rect x="728" y="79" width="80" height="2" fill="#0f0" opacity="0.002926579232622517" />
<rect x="631" y="245" width="13" height="5" fill="#0f0" opacity="0.016908143225586036" />
<rect x="323" y="383" width="54" height="3" fill="#0f0" opacity="0.3066430286715554" />
<rect x="287" y="286" width="64" height="5" fill="#0f0" opacity="0.2764287618842746" />
<rect x="122" y="322" width="46" height="3" fill="#0f0" opacity="0.3488679092783731" />
<rect x="797" y="290" width="63" height="3" fill="#0f0" opacity="0.18212736279065483" />
<rect x="119" y="222" width="50" height="4" fill="#0f0" opacity="0.1820172537184392" />
<rect x="795" y="282" width="76" height="4" fill="#0f0" opacity="0.34372632640981865" />
<rect x="757" y="246" width="94" height="4" fill="#0f0" opacity="0.016513091039371375" />
<rect x="121" y="73" width="83" height="3" fill="#0f0" opacity="0.3396098922766667" />
<rect x="505" y="348" width="86" height="3" fill="#0f0" opacity="0.4562583094391495" />
<rect x="458" y="176" width="51" height="5" fill="#0f0" opacity="0.3286977986003908" />
<rect x="717" y="102" width="29" height="2" fill="#0f0" opacity="0.47185745538568313" />
<rect x="640" y="305" width="42" height="3" fill="#0f0" opacity="0.3152040540321611" />
<rect x="639" y="208" width="100" height="5" fill="#0f0" opacity="0.3614570138471103" />
<rect x="142" y="99" width="72" height="3" fill="#0f0" opacity="0.004105088087344333" />
<rect x="94" y="227" width="90" height="3" fill="#0f0" opacity="0.4314385528112949" />
<rect x="673" y="15" width="12" height="5" fill="#0f0" opacity="0.28363082530756006" />
<rect x="324" y="83" width="72" height="5" fill="#0f0" opacity="0.16210149682527136" />
<rect x="382" y="59" width="97" height="5" fill="#0f0" opacity="0.13499679063604464" />
<rect x="396" y="278" width="71" height="5" fill="#0f0" opacity="0.3782648526232216" />
<rect x="229" y="35" width="22" height="4" fill="#0f0" opacity="0.15859063144913138" />
<rect x="700" y="2" width="78" height="5" fill="#0f0" opacity="0.2556707712223214" />
<rect x="581" y="260" width="67" height="2" fill="#0f0" opacity="0.09566572990729566" />
<rect x="738" y="362" width="19" height="5" fill="#0f0" opacity="0.09466760998720825" />
<rect x="445" y="141" width="89" height="5" fill="#0f0" opacity="0.20634881465261434" />
<rect x="423" y="165" width="47" height="2" fill="#0f0" opacity="0.48467253391286236" />
<rect x="742" y="225" width="19" height="3" fill="#0f0" opacity="0.2753384743980433" />
<rect x="207" y="374" width="29" height="5" fill="#0f0" opacity="0.4157068566320648" />
<rect x="693" y="33" width="100" height="5" fill="#0f0" opacity="0.11624608303593476" />

  <line x1="324" y1="348" x2="122" y2="363" stroke="#0f0" stroke-width="1" opacity="0.3" />
<line x1="443" y1="2" x2="255" y2="340" stroke="#0f0" stroke-width="1" opacity="0.3" />
<line x1="790" y1="39" x2="626" y2="89" stroke="#0f0" stroke-width="1" opacity="0.3" />
<line x1="261" y1="25" x2="739" y2="123" stroke="#0f0" stroke-width="1" opacity="0.3" />
<line x1="224" y1="344" x2="257" y2="153" stroke="#0f0" stroke-width="1" opacity="0.3" />
<line x1="451" y1="45" x2="186" y2="209" stroke="#0f0" stroke-width="1" opacity="0.3" />
<line x1="732" y1="236" x2="195" y2="31" stroke="#0f0" stroke-width="1" opacity="0.3" />
<line x1="277" y1="353" x2="648" y2="15" stroke="#0f0" stroke-width="1" opacity="0.3" />
<line x1="609" y1="223" x2="35" y2="209" stroke="#0f0" stroke-width="1" opacity="0.3" />
<line x1="618" y1="217" x2="141" y2="381" stroke="#0f0" stroke-width="1" opacity="0.3" />

  <text x="50%" y="50%" dominant-baseline="middle" text-anchor="middle" font-family="monospace" font-size="40" fill="#fff" font-weight="bold" style="text-shadow: 2px 2px #0f0;">CRYPTO PUMP</text>
</svg>